<svg width="256" height="256" viewBox="0 0 100 100" fill="none" xmlns="http://www.w3.org/2000/svg">
  <rect width="100" height="100" fill="transparent"/>
  <g stroke="#000000" stroke-width="4.5" stroke-linecap="round" stroke-linejoin="round" fill="none">
    <path d="M 23 83 A 42 42 0 1 1 77 83" />
    <line x1="38" y1="89" x2="62" y2="89" />
    <line x1="43" y1="96" x2="57" y2="96" />
    <path d="M 45 89 L 45 32 A 8 8 0 0 0 37 24 L 34 24 A 10 10 0 0 0 24 34 L 24 40 A 10 10 0 0 0 34 50 L 37 50" />
    <path d="M 45 56 L 35 56 A 8 8 0 0 0 27 64 A 8 8 0 0 0 35 72 L 38 72" />
    <path d="M 55 89 L 55 32 A 8 8 0 0 1 63 24 L 66 24 A 10 10 0 0 1 76 34 L 76 40 A 10 10 0 0 1 66 50 L 63 50" />
    <path d="M 55 56 L 65 56 A 8 8 0 0 1 73 64 A 8 8 0 0 1 65 72 L 62 72" />
  </g>
  <g fill="#000000">
    <circle cx="37" cy="50" r="3.2" />
    <circle cx="38" cy="72" r="3.2" />
    <circle cx="63" cy="50" r="3.2" />
    <circle cx="62" cy="72" r="3.2" />
  </g>
</svg>
