<svg width="64" height="64" viewBox="0 0 64 64" fill="none" xmlns="http://www.w3.org/2000/svg">
	<rect width="64" height="64" rx="20" fill="url(#bg)" />
	<rect x="1" y="1" width="62" height="62" rx="19" stroke="rgba(255,255,255,0.12)" stroke-width="2" />
	<path d="M29.5 18.5C24.117 18.5 19.75 22.867 19.75 28.25C19.75 30.611 20.591 32.776 22.001 34.46C21.808 39.128 25.129 43.5 29.978 43.5C31.744 43.5 33.397 42.92 34.75 41.928" stroke="rgba(224,242,254,0.94)" stroke-width="4" stroke-linecap="round" stroke-linejoin="round"/>
	<path d="M34.5 18.5C39.883 18.5 44.25 22.867 44.25 28.25C44.25 30.611 43.409 32.776 41.999 34.46C42.192 39.128 38.871 43.5 34.022 43.5C32.256 43.5 30.603 42.92 29.25 41.928" stroke="rgba(125,211,252,0.96)" stroke-width="4" stroke-linecap="round" stroke-linejoin="round"/>
	<path d="M32 18V26" stroke="rgba(186,230,253,0.9)" stroke-width="4" stroke-linecap="round"/>
	<path d="M32 29V45" stroke="rgba(186,230,253,0.9)" stroke-width="4" stroke-linecap="round"/>
	<path d="M25 26.5H29.5" stroke="rgba(224,242,254,0.86)" stroke-width="4" stroke-linecap="round"/>
	<path d="M34.5 31.5H39" stroke="rgba(125,211,252,0.9)" stroke-width="4" stroke-linecap="round"/>
	<path d="M28.5 36H35.5" stroke="rgba(163,230,253,0.95)" stroke-width="4" stroke-linecap="round"/>
	<path d="M22.75 34.5H27" stroke="rgba(224,242,254,0.8)" stroke-width="4" stroke-linecap="round"/>
	<path d="M37 39H41.25" stroke="rgba(125,211,252,0.8)" stroke-width="4" stroke-linecap="round"/>
	<circle cx="24" cy="34.5" r="3" stroke="#F8FAFC" stroke-width="2.5"/>
	<circle cx="40" cy="39" r="3" stroke="#67E8F9" stroke-width="2.5"/>
	<circle cx="32" cy="27.5" r="3" stroke="#BAE6FD" stroke-width="2.5"/>
	<path d="M32 27.5V32" stroke="rgba(186,230,253,0.95)" stroke-width="4" stroke-linecap="round"/>
	<defs>
		<linearGradient id="bg" x1="10" y1="6" x2="54" y2="58" gradientUnits="userSpaceOnUse">
			<stop stop-color="#08111F"/>
			<stop offset="0.55" stop-color="#101A2D"/>
			<stop offset="1" stop-color="#16243B"/>
		</linearGradient>
	</defs>
</svg>